<svg width="16" height="16" viewBox="0 0 16 16" fill="none" xmlns="http://www.w3.org/2000/svg">
<g clip-path="url(#clip0_621_6720)">
<path fill-rule="evenodd" clip-rule="evenodd" d="M8 1.91667C4.64027 1.91667 1.91667 4.64027 1.91667 8C1.91667 11.3597 4.64027 14.0833 8 14.0833C11.3597 14.0833 14.0833 11.3597 14.0833 8C14.0833 4.64027 11.3597 1.91667 8 1.91667ZM0.75 8C0.75 3.99594 3.99594 0.75 8 0.75C12.0041 0.75 15.25 3.99594 15.25 8C15.25 12.0041 12.0041 15.25 8 15.25C3.99594 15.25 0.75 12.0041 0.75 8Z" fill="#F03D3D"/>
<path fill-rule="evenodd" clip-rule="evenodd" d="M10.4125 5.58752C10.6403 5.81533 10.6403 6.18467 10.4125 6.41248L6.41248 10.4125C6.18467 10.6403 5.81533 10.6403 5.58752 10.4125C5.35972 10.1847 5.35972 9.81533 5.58752 9.58752L9.58752 5.58752C9.81533 5.35972 10.1847 5.35972 10.4125 5.58752Z" fill="#F03D3D"/>
<path fill-rule="evenodd" clip-rule="evenodd" d="M5.58752 5.58752C5.81533 5.35972 6.18467 5.35972 6.41248 5.58752L10.4125 9.58752C10.6403 9.81533 10.6403 10.1847 10.4125 10.4125C10.1847 10.6403 9.81533 10.6403 9.58752 10.4125L5.58752 6.41248C5.35972 6.18467 5.35972 5.81533 5.58752 5.58752Z" fill="#F03D3D"/>
</g>
<defs>
<clipPath id="clip0_621_6720">
<rect width="16" height="16" fill="white"/>
</clipPath>
</defs>
</svg>
