<svg width="16" height="16" viewBox="0 0 16 16" fill="none" xmlns="http://www.w3.org/2000/svg">
<g clip-path="url(#clip0_621_7551)">
<path d="M6.65935 2.06245C7.93892 1.77335 9.27766 1.90562 10.4759 2.43953C10.7702 2.57065 11.115 2.43839 11.2462 2.14412C11.3773 1.84984 11.245 1.50499 10.9508 1.37387C9.5227 0.73756 7.92721 0.579925 6.40224 0.924471C4.87727 1.26902 3.50453 2.09728 2.48875 3.28574C1.47298 4.4742 0.868583 5.95917 0.765716 7.51919C0.662849 9.07921 1.06702 10.6307 1.91795 11.9422C2.76887 13.2538 4.02097 14.2551 5.48749 14.7969C6.95401 15.3387 8.55639 15.392 10.0556 14.9487C11.5549 14.5054 12.8707 13.5894 13.8068 12.3372C14.7429 11.085 15.2491 9.56344 15.25 8.00003V7.3867C15.25 7.06453 14.9888 6.80337 14.6667 6.80337C14.3445 6.80337 14.0833 7.06453 14.0833 7.3867V7.9997C14.0826 9.31152 13.6578 10.588 12.8723 11.6386C12.0869 12.6893 10.9828 13.458 9.72484 13.8299C8.46686 14.2019 7.12233 14.1572 5.8918 13.7026C4.66127 13.248 3.61067 12.4077 2.89667 11.3072C2.18267 10.2068 1.84354 8.90494 1.92985 7.59596C2.01617 6.28698 2.5233 5.04096 3.37562 4.04375C4.22794 3.04654 5.37978 2.35156 6.65935 2.06245Z" fill="#33B36B"/>
<path d="M15.0794 3.0789C15.307 2.85098 15.3069 2.48163 15.0789 2.25394C14.851 2.02625 14.4817 2.02643 14.254 2.25435L7.99979 8.51479L6.41248 6.92748C6.18467 6.69967 5.81533 6.69967 5.58752 6.92748C5.35972 7.15529 5.35972 7.52463 5.58752 7.75244L7.58752 9.75244C7.69695 9.86187 7.84539 9.92333 8.00015 9.92329C8.15491 9.92325 8.30331 9.86172 8.41269 9.75223L15.0794 3.0789Z" fill="#33B36B"/>
</g>
<defs>
<clipPath id="clip0_621_7551">
<rect width="16" height="16" fill="white"/>
</clipPath>
</defs>
</svg>
