<svg width="14" height="16" viewBox="0 0 14 16" fill="none" xmlns="http://www.w3.org/2000/svg">
<path fill-rule="evenodd" clip-rule="evenodd" d="M2.33366 7.91667C1.91945 7.91667 1.58366 8.25245 1.58366 8.66667V13.3333C1.58366 13.7475 1.91945 14.0833 2.33366 14.0833H11.667C12.0812 14.0833 12.417 13.7475 12.417 13.3333V8.66667C12.417 8.25245 12.0812 7.91667 11.667 7.91667H2.33366ZM0.416992 8.66667C0.416992 7.60812 1.27511 6.75 2.33366 6.75H11.667C12.7255 6.75 13.5837 7.60812 13.5837 8.66667V13.3333C13.5837 14.3919 12.7255 15.25 11.667 15.25H2.33366C1.27511 15.25 0.416992 14.3919 0.416992 13.3333V8.66667Z" fill="#4E5562"/>
<path fill-rule="evenodd" clip-rule="evenodd" d="M7.00033 1.91667C6.27098 1.91667 5.57151 2.2064 5.05578 2.72212C4.54006 3.23785 4.25033 3.93732 4.25033 4.66667V7.33333C4.25033 7.6555 3.98916 7.91667 3.66699 7.91667C3.34483 7.91667 3.08366 7.6555 3.08366 7.33333V4.66667C3.08366 3.6279 3.49631 2.63168 4.23082 1.89717C4.96534 1.16265 5.96156 0.75 7.00033 0.75C8.03909 0.75 9.03531 1.16265 9.76983 1.89717C10.5043 2.63168 10.917 3.6279 10.917 4.66667V7.33333C10.917 7.6555 10.6558 7.91667 10.3337 7.91667C10.0115 7.91667 9.75033 7.6555 9.75033 7.33333V4.66667C9.75033 3.93732 9.46059 3.23785 8.94487 2.72212C8.42914 2.2064 7.72967 1.91667 7.00033 1.91667Z" fill="#4E5562"/>
</svg>
