<svg width="43" height="44" viewBox="0 0 43 44" fill="none" xmlns="http://www.w3.org/2000/svg">
<path fill-rule="evenodd" clip-rule="evenodd" d="M43 21.9118C43 31.5827 36.6043 39.7676 27.8249 42.4565C25.8189 43.0698 23.6948 43.4 21.4764 43.4C11.4934 43.4 3.11526 36.6068 0.684413 27.4077C0.306806 25.9689 0.0708013 24.4829 0 22.9497V20.8504C0.0236004 20.3786 0.0708013 19.9069 0.118002 19.4351C0.236004 18.3501 0.448408 17.2651 0.731614 16.2272C3.20966 7.12246 11.5642 0.400024 21.5 0.400024C28.1553 0.400024 34.1026 3.41922 38.0675 8.1839C39.8611 10.3304 41.23 12.8542 42.0796 15.5904C42.6696 17.5717 43 19.6946 43 21.9118Z" fill="#F55266"/>
<path d="M20.8621 26.3486C20.2485 26.3486 19.6821 25.9694 19.4933 25.3533C19.2573 24.595 19.6585 23.7893 20.4137 23.5523L29.5707 20.5901L28.131 10.6847L12.2244 16.2299C11.4691 16.4905 10.6667 16.0877 10.4071 15.3294C10.1475 14.5711 10.5487 13.7654 11.3039 13.5047L27.895 7.72257C28.5559 7.48559 29.2875 7.55669 29.8539 7.91214C30.3967 8.24391 30.7743 8.81264 30.8687 9.45246L32.4735 20.4717C32.6387 21.6565 31.8835 22.8651 30.7035 23.2679L21.3105 26.3012C21.1453 26.3249 21.0037 26.3486 20.8621 26.3486Z" fill="white"/>
<path d="M29.5941 26.5144C29.3817 25.7561 28.5793 25.3059 27.8241 25.5429C27.6353 25.5902 23.4344 26.8225 21.6408 27.4386C18.8559 28.3865 17.7231 27.4623 17.5579 27.3201L9.72257 17.2251C8.11774 14.9265 5.66329 14.8317 4.45967 15.1161L0.730799 16.3009C0.447594 17.3673 0.23519 18.4337 0.117188 19.5238L5.16768 17.8887C5.42729 17.8413 6.58371 17.6991 7.38612 18.8602L15.3395 29.1211C16.2363 30.2586 17.7467 30.7088 19.3515 30.7088C20.4372 30.7088 21.57 30.4956 22.5612 30.1401C24.284 29.5714 28.5793 28.2917 28.6265 28.2917C29.3817 28.0785 29.8301 27.2964 29.5941 26.5144Z" fill="white"/>
<path d="M22.3249 34.7847C22.3249 36.0644 21.2865 37.1071 20.0121 37.1071C18.7376 37.1071 17.6992 36.0644 17.6992 34.7847C17.6992 33.5051 18.7376 32.4624 20.0121 32.4624C21.2865 32.4624 22.3249 33.5051 22.3249 34.7847Z" fill="white"/>
<path d="M32.4968 32.1782C32.4968 33.4578 31.4584 34.5005 30.1839 34.5005C28.9095 34.5005 27.8711 33.4578 27.8711 32.1782C27.8711 30.8985 28.9095 29.8558 30.1839 29.8558C31.4584 29.8558 32.4968 30.8985 32.4968 32.1782Z" fill="white"/>
</svg>
